<?xml version="1.0" encoding="UTF-8" standalone="no"?>
<svg width="69px" height="70px" viewBox="0 0 69 70" version="1.1" xmlns="http://www.w3.org/2000/svg" xmlns:xlink="http://www.w3.org/1999/xlink" xmlns:sketch="http://www.bohemiancoding.com/sketch/ns">
    <!-- Generator: Sketch 3.1.1 (8761) - http://www.bohemiancoding.com/sketch -->
    <title>Oval 2 + lightbulb 2</title>
    <desc>Created with Sketch.</desc>
    <defs></defs>
    <g id="Page-1" stroke="none" stroke-width="1" fill="none" fill-rule="evenodd" sketch:type="MSPage">
        <g id="Artboard" sketch:type="MSArtboardGroup" transform="translate(-93.000000, -156.000000)" stroke="#D1DF32">
            <g id="Oval-2-+-lightbulb-2" sketch:type="MSLayerGroup" transform="translate(95.000000, 158.000000)">
                <circle id="Oval-2" stroke-width="4" sketch:type="MSShapeGroup" cx="32.5" cy="33" r="32.8789062"></circle>
                <g id="lightbulb-2" transform="translate(17.878906, 12.000000)" stroke-width="3" sketch:type="MSShapeGroup">
                    <path d="M7.39082532,35.2672794 L7.39082532,39.185866 C7.39082532,40.2634773 8.34107429,41.1451593 9.5024897,41.1451593 L20.0608116,41.1451593 C21.222227,41.1451593 22.172476,40.2634773 22.172476,39.185866 L22.172476,35.2672794 L7.39082532,35.2672794 L7.39082532,35.2672794 L7.39082532,35.2672794 L7.39082532,35.2672794 Z" id="Shape"></path>
                    <path d="M21.6181641,35.2672794 L21.6181641,29.2214601 C21.6181641,23.7953372 28.8242188,23.6109397 28.8242188,14.1069118 C28.8242188,6.31485829 22.3717115,0 14.4121094,0 C6.45250725,0 0,6.31485829 0,14.1069118 C0,23.8134747 7.20605469,24.8805618 7.20605469,29.2214601 L7.20605469,35.2672794" id="Shape"></path>
                    <path d="M16.9988982,41.1451593 C16.9988982,42.7674542 15.6744623,44.0840993 14.0425681,44.0840993 C12.4106739,44.0840993 11.086238,42.7674542 11.086238,41.1451593" id="Shape"></path>
                    <path d="M15,19.1031097 L15,32.3283395" id="Shape"></path>
                    <path d="M10.3471554,14.6946998 L14.4121094,18.3683747 L18.4770633,14.6946998" id="Shape"></path>
                </g>
            </g>
        </g>
    </g>
</svg>