<?xml version="1.0" encoding="UTF-8" standalone="no"?>
<svg width="33px" height="42px" viewBox="0 0 33 42" version="1.1" xmlns="http://www.w3.org/2000/svg" xmlns:xlink="http://www.w3.org/1999/xlink" xmlns:sketch="http://www.bohemiancoding.com/sketch/ns">
    <!-- Generator: Sketch 3.3 (11970) - http://www.bohemiancoding.com/sketch -->
    <title>password_icon</title>
    <desc>Created with Sketch.</desc>
    <defs></defs>
    <g id="Log-In" stroke="none" stroke-width="1" fill="none" fill-rule="evenodd" sketch:type="MSPage">
        <g id="lock-outline-copy" sketch:type="MSLayerGroup" transform="translate(2.000000, 2.000000)" fill="#CFE02B">
            <path d="M25.189781,12.6615064 L23.3905109,12.6615064 L23.3905109,9.04393317 C23.3905109,3.97933059 19.4321168,0 14.3941606,0 C9.35620438,0 5.39781022,3.97933059 5.39781022,9.04393317 L5.39781022,12.6615064 L3.59854015,12.6615064 C1.61934307,12.6615064 0,14.2894144 0,16.2790797 L0,34.366946 C0,36.3566113 1.61934307,37.9845193 3.59854015,37.9845193 L25.189781,37.9845193 C27.1689781,37.9845193 28.7883212,36.3566113 28.7883212,34.366946 L28.7883212,16.2790797 C28.7883212,14.2894144 27.1689781,12.6615064 25.189781,12.6615064 L25.189781,12.6615064 Z M14.3941606,3.4366946 C17.4529197,3.4366946 19.9718978,5.96899589 19.9718978,9.04393317 L19.9718978,12.6615064 L8.99635036,12.6615064 L8.99635036,9.04393317 L8.81642336,9.04393317 C8.81642336,5.96899589 11.3354015,3.4366946 14.3941606,3.4366946 L14.3941606,3.4366946 Z M25.189781,34.366946 L3.59854015,34.366946 L3.59854015,16.2790797 L25.189781,16.2790797 L25.189781,34.366946 L25.189781,34.366946 Z M14.3941606,28.9405861 C16.3733577,28.9405861 17.9927007,27.3126782 17.9927007,25.3230129 C17.9927007,23.3333476 16.3733577,21.7054396 14.3941606,21.7054396 C12.4149635,21.7054396 10.7956204,23.3333476 10.7956204,25.3230129 C10.7956204,27.3126782 12.4149635,28.9405861 14.3941606,28.9405861 L14.3941606,28.9405861 Z" id="Shape" sketch:type="MSShapeGroup"></path>
        </g>
    </g>
</svg>