<?xml version="1.0" encoding="UTF-8" standalone="no"?>
<svg width="2048px" height="1536px" viewBox="0 0 2048 1536" version="1.1" xmlns="http://www.w3.org/2000/svg" xmlns:xlink="http://www.w3.org/1999/xlink" xmlns:sketch="http://www.bohemiancoding.com/sketch/ns">
    <!-- Generator: Sketch 3.3 (11970) - http://www.bohemiancoding.com/sketch -->
    <title>login_background_2048x1536</title>
    <desc>Created with Sketch.</desc>
    <defs>
        <linearGradient x1="50%" y1="0%" x2="50%" y2="100%" id="linearGradient-1">
            <stop stop-color="#008B9A" offset="0%"></stop>
            <stop stop-color="#66BCC6" offset="100%"></stop>
        </linearGradient>
    </defs>
    <g id="Log-In" stroke="none" stroke-width="1" fill="none" fill-rule="evenodd" sketch:type="MSPage">
        <g id="login_background_2048x1536" sketch:type="MSArtboardGroup">
            <g id="Rectangle-156-+-Shape-+-Shape-+-Shape" sketch:type="MSLayerGroup" transform="translate(0.000000, -16.000000)">
                <rect id="Rectangle-156" fill="url(#linearGradient-1)" sketch:type="MSShapeGroup" x="0" y="16" width="2048" height="1536"></rect>
                <g id="Shape-+-Shape-+-Shape" transform="translate(203.812500, 0.000000)" fill="#008B9A" sketch:type="MSShapeGroup">
                    <path d="M597.822415,985.983471 C599.01187,898.178519 674.757616,771.419522 799.558141,662.7124 C924.31765,554.034968 1062.7764,494.327205 1153.35958,502.185313 C1153.79024,472.761945 1145.8332,447.683299 1128.53483,429.176169 C1059.58743,355.434657 868.608074,413.291707 702.002296,558.35 C535.396518,703.477571 456.205453,880.888703 525.152846,954.640112 C542.451218,973.147242 567.440034,983.390493 597.822415,985.983471" id="Shape"></path>
                    <path d="M1637.60066,1261.00011 C1612.16669,1293.9053 1583.4179,1324.8274 1551.31373,1353.35785 C1235.65482,1633.30107 717.304766,1574.31688 393.515912,1221.54777 C69.7676072,868.798581 63.1683604,355.868302 378.806992,75.8652902 C409.948138,48.2416748 443.106566,23.9564111 477.866654,2.87995125 L475.149914,0 C388.933947,30.862315 315.551538,63.4286841 244.71354,126.259455 C-87.5195112,421.00104 -80.6060145,960.907195 260.22329,1332.24153 C601.042458,1703.57587 1146.69171,1765.62935 1478.95517,1470.92763 C1550.8677,1407.16013 1599.57643,1345.83411 1639.73958,1263.26222 L1637.60066,1261.00011" id="Shape"></path>
                    <path d="M1373.91677,343.35649 C1120.55057,64.0923216 719.034618,13.5782288 477.167152,230.614018 C397.403532,302.135463 344.962034,393.870582 319.610258,494.71793 L321.519977,496.536357 C348.155004,441.913222 384.257793,391.36899 432.08161,350.047497 C532.245882,263.506448 706.161695,175.61916 959.911858,242.257978 C1125.2794,285.659108 1181.25742,367.759579 1203.20403,400.762521 C1285.53416,524.455741 1194.36274,761.052178 1004.24968,931.572404 C817.279066,1099.33987 590.992485,1160.73439 466.102906,1086.21907 L463.647552,1088.36903 C474.600651,1102.173 486.048863,1115.78609 498.113439,1129.08773 C518.524195,1151.51165 539.834238,1172.48886 562.003148,1191.98923 C686.811893,1266.74567 913.290457,1205.43152 1100.42274,1037.5234 C1292.65771,865.044098 1376.58432,639.971063 1304.58083,510.290095 L1305.4599,509.546649 C1487.34804,759.816451 1477.15276,1088.98187 1270.74141,1274.20021 C1225.34263,1314.87873 1173.9823,1345.39012 1118.9743,1366.19654 L1122.35925,1369.42149 C1222.86707,1353.66848 1317.1001,1311.57341 1394.84285,1241.8302 C1472.00966,1172.58933 1523.56197,1084.54129 1549.80293,987.581964 C1605.87189,780.693199 1546.49881,533.487597 1373.91677,343.35649" id="Shape"></path>
                </g>
            </g>
        </g>
    </g>
</svg>